<?xml version="1.0" encoding="UTF-8" standalone="no"?>
<!-- Created with Inkscape (http://www.inkscape.org/) -->

<svg
   version="1.1"
   id="svg1"
   width="856"
   height="440"
   viewBox="0 0 856 440"
   sodipodi:docname="black.svg"
   xml:space="preserve"
   inkscape:version="1.3.2 (091e20e, 2023-11-25, custom)"
   xmlns:inkscape="http://www.inkscape.org/namespaces/inkscape"
   xmlns:sodipodi="http://sodipodi.sourceforge.net/DTD/sodipodi-0.dtd"
   xmlns="http://www.w3.org/2000/svg"
   xmlns:svg="http://www.w3.org/2000/svg"><defs
     id="defs1" /><sodipodi:namedview
     id="namedview1"
     pagecolor="#ffffff"
     bordercolor="#000000"
     borderopacity="0.25"
     inkscape:showpageshadow="2"
     inkscape:pageopacity="0.0"
     inkscape:pagecheckerboard="0"
     inkscape:deskcolor="#d1d1d1"
     inkscape:zoom="0.63726636"
     inkscape:cx="404.06966"
     inkscape:cy="120.044"
     inkscape:window-width="1920"
     inkscape:window-height="1017"
     inkscape:window-x="-8"
     inkscape:window-y="-8"
     inkscape:window-maximized="1"
     inkscape:current-layer="g1" /><g
     inkscape:groupmode="layer"
     inkscape:label="Image"
     id="g1"><path
       style="fill:#ffffff;fill-opacity:1"
       d="m 9.48321,420.75155 9.31866,-19.25154 98.12179,-199.95873 98.12179,-199.9587387 0.7928,-0.79282005 0.7928,-0.79281 319.6022,0.25155 319.6022,0.25154 -107.6664,219.50000875 -107.6664,219.5 -320.169,0.25154 -320.1691,0.25154 z"
       id="path2" /><path
       style="fill:#000000"
       d="m 202.99957,370 25.00392,-50 h 74.99608 74.99608 l 25.00392,-50 25.00392,-50 h 74.99608 74.99608 l 25.00392,-50 25.00392,-50 h 73.44376 73.4438 l -17.562,35.75 -17.5621,35.75 -6.8318,14.25 -6.8317,14.25 h -74.05 -74.04996 l -25.00392,50 -25.00392,50 h -74.99608 -74.99608 l -25.00392,50 -25.00392,50 h -75 -75 z m 300,0 25.00392,-50 h 74.44199 74.44197 l -22.547,45.75 -22.54702,45.75 -1.86139,4.25 -1.8614,4.25 h -75.03749 -75.0375 z M 99.67709,282.25 118.24523,244.5 124.09577,232.25 129.94632,220 h 74.02466 74.02467 l 25.00392,-50 25.00392,-50 h 74.99608 74.99608 l 25.00392,-50 25.00392,-50 h 75 74.99996 l -25.00388,50 -25.00392,50 h -74.99608 -74.99608 l -25.00392,50 -25.00392,50 h -74.99608 -74.99608 l -25.00392,50 -25.00392,50 H 154.5523 81.10895 Z m 102.97776,-210 23.54264,-47.75 1.06156,-2.25 1.06155,-2.25 h 74.84145 74.84144 l -25.00392,50 -25.00392,50 H 253.55393 179.1122 Z"
       id="path1" /></g></svg>
